<svg width="200" height="200" viewBox="0 0 200 200" xmlns="http://www.w3.org/2000/svg">
  <!-- Rounded square background -->
  <rect x="10" y="10" width="180" height="180" rx="30" ry="30" fill="#F4B001"/>
  
  <!-- Fractal glyph symbol -->
  <g fill="#000000" stroke="none">
    <!-- Central vertical line -->
    <rect x="95" y="60" width="10" height="80" />
    
    <!-- Top diamond -->
    <path d="M100 40 L120 60 L100 80 L80 60 Z" />
    <rect x="95" y="55" width="10" height="20" />
    
    <!-- Left zigzag -->
    <path d="M70 80 L50 100 L70 120 L60 130 L30 100 L60 70 Z" />
    
    <!-- Right zigzag -->
    <path d="M130 80 L150 100 L130 120 L140 130 L170 100 L140 70 Z" />
    
    <!-- Bottom triangle -->
    <path d="M100 140 L130 170 L70 170 Z" />
    
    <!-- Face elements -->
    <path d="M85 110 Q100 120 115 110" stroke="#000000" stroke-width="3" fill="none" />
    <rect x="95" y="125" width="10" height="10" />
  </g>
</svg>

