<svg width="200" height="200" viewBox="0 0 200 200" xmlns="http://www.w3.org/2000/svg">
  <!-- Background rounded square -->
  <rect x="0" y="0" width="200" height="200" rx="30" ry="30" fill="#F4B001"/>
  
  <!-- Forge Glyph -->
  <g transform="translate(100, 100)">
    <!-- Central vertical line -->
    <rect x="-5" y="-80" width="10" height="80" fill="#000000"/>
    
    <!-- Top diamond -->
    <path d="M0 -90 L20 -70 L0 -50 L-20 -70 Z" fill="#000000"/>
    <rect x="-5" y="-75" width="10" height="20" fill="#000000"/>
    
    <!-- Left zigzag -->
    <path d="M-25 -50 L-45 -30 L-25 -10 L-35 0 L-60 -30 L-35 -60 Z" fill="#000000"/>
    
    <!-- Right zigzag -->
    <path d="M25 -50 L45 -30 L25 -10 L35 0 L60 -30 L35 -60 Z" fill="#000000"/>
    
    <!-- Bottom triangle -->
    <path d="M0 0 L25 10 L-25 10 Z" fill="#000000"/>
    
    <!-- Face elements -->
    <path d="M-15 -25 Q0 -15 15 -25" stroke="#000000" stroke-width="3" fill="none"/>
    <rect x="-5" y="-10" width="10" height="8" fill="#000000"/>
  </g>
</svg>

